<svg xmlns="http://www.w3.org/2000/svg" width="106" height="24" viewBox="0 0 106 24">
    <g fill="none" fill-rule="evenodd">
        <path fill="#333" d="M36.738 12.104h-5.496v1.631h3.898c-.193 2.287-2.095 3.262-3.891 3.262a4.285 4.285 0 0 1-4.303-4.341c0-2.469 1.912-4.37 4.308-4.37 1.849 0 2.938 1.18 2.938 1.18l1.142-1.183S33.868 6.65 31.196 6.65c-3.404 0-6.037 2.873-6.037 5.975a6.07 6.07 0 0 0 6.123 6.005c3.207 0 5.555-2.197 5.555-5.445 0-.686-.1-1.082-.1-1.082zM41.409 10.924c-2.255 0-3.871 1.762-3.871 3.819 0 2.086 1.567 3.882 3.897 3.882 2.11 0 3.838-1.613 3.838-3.838 0-2.55-2.01-3.863-3.864-3.863m.022 1.512c1.11 0 2.16.896 2.16 2.341 0 1.414-1.046 2.336-2.165 2.336-1.229 0-2.198-.984-2.198-2.347 0-1.334.957-2.33 2.203-2.33M49.92 10.924c-2.256 0-3.872 1.762-3.872 3.819 0 2.086 1.568 3.882 3.898 3.882 2.109 0 3.837-1.613 3.837-3.838 0-2.55-2.01-3.863-3.864-3.863m.023 1.512c1.108 0 2.16.896 2.16 2.341 0 1.414-1.047 2.336-2.166 2.336-1.229 0-2.198-.984-2.198-2.347 0-1.334.958-2.33 2.204-2.33M58.255 10.928c-2.07 0-3.697 1.812-3.697 3.847 0 2.318 1.886 3.855 3.661 3.855 1.097 0 1.681-.436 2.112-.936v.76c0 1.328-.807 2.123-2.024 2.123-1.176 0-1.766-.874-1.971-1.37l-1.48.618c.525 1.11 1.582 2.268 3.463 2.268 2.058 0 3.626-1.296 3.626-4.015V11.16h-1.614v.652c-.496-.535-1.175-.883-2.076-.883zm.15 1.509c1.014 0 2.056.867 2.056 2.346 0 1.504-1.04 2.333-2.079 2.333-1.103 0-2.13-.896-2.13-2.319 0-1.478 1.066-2.36 2.153-2.36zM69.463 10.918c-1.953 0-3.592 1.554-3.592 3.846 0 2.425 1.827 3.863 3.78 3.863 1.628 0 2.628-.89 3.225-1.69l-1.33-.885c-.346.536-.924 1.06-1.888 1.06-1.082 0-1.58-.593-1.888-1.167l5.163-2.142-.268-.628c-.499-1.23-1.662-2.256-3.202-2.256zm.067 1.481c.704 0 1.21.374 1.425.823l-3.448 1.44c-.149-1.115.908-2.263 2.023-2.263zM63.24 18.399h1.696V7.049H63.24zM85.978 18.399h1.696V7.049h-1.696zM76.985 18.399h1.696V7.049h-1.696z"/>
        <path fill="#333" d="M78.68 8.745v3.84h2.407a1.93 1.93 0 0 0 1.92-1.92 1.93 1.93 0 0 0-1.92-1.92h-2.406zM76.986 7.05h4.102a3.626 3.626 0 0 1 3.616 3.616 3.626 3.626 0 0 1-3.616 3.615h-4.102V7.05zM100.195 22.093l4.91-11.174h-1.852l-4.91 11.174z"/>
        <path fill="#333" d="M100.743 19.535l-3.786-8.616h1.852l2.612 5.942h-.678zM94.615 15.118c-.217.944-.949 1.623-1.877 1.876-1.961.534-2.449-2.652.465-2.214.5.06.937.184 1.412.338zm0 3.28h1.696v-4.081c.265-4.21-5.072-5.2-7.092-2.165l1.365.916c.987-1.727 3.805-1.33 3.99.52-.846-.224-1.761-.387-2.597-.302-1.305.132-2.422.96-2.6 2.318-.095.733.068 1.637.58 2.188.798.858 2.108.974 3.184.681.606-.165 1.083-.525 1.474-.99v.916zM18.211 12.394L2.447 20.276A1 1 0 0 1 1 19.382V3.618a1 1 0 0 1 1.447-.894l15.764 7.882a1 1 0 0 1 0 1.788z"/>
        <path stroke="#FFF" d="M2.5 2.5l13 12M15.5 8.5l-13 12"/>
    </g>
</svg>
