<svg xmlns="http://www.w3.org/2000/svg" xmlns:xlink="http://www.w3.org/1999/xlink" width="92" height="24" viewBox="0 0 92 24">
    <defs>
        <path id="a" d="M31.63.967c-.657.563-.986 1.286-.986 2.168 0 1.35.938 2.377 2.816 3.077.69.256 1.184.533 1.48.83.297.298.445.664.445 1.1 0 .489-.18.88-.54 1.173-.362.292-.866.438-1.513.438a4.71 4.71 0 0 1-2.484-.685l-.398 1.433c.7.446 1.626.668 2.78.668 1.25 0 2.222-.313 2.922-.94.635-.573.952-1.315.952-2.228 0-.742-.217-1.364-.65-1.86-.437-.499-1.115-.934-2.038-1.305-.754-.298-1.274-.574-1.56-.828a1.312 1.312 0 0 1-.492-1.051c0-.383.143-.706.43-.972.338-.297.81-.446 1.414-.446.765 0 1.448.165 2.053.494L36.69.63c-.648-.34-1.458-.51-2.434-.51-1.095 0-1.97.282-2.626.846zM3.784.279L.33 11.01h1.782l.955-3.152h3.485l1.002 3.152h1.831L5.915.28H3.784zm.478 3.455c.234-.891.404-1.566.509-2.022h.032c.266 1.061.445 1.735.541 2.022l.907 2.802H3.37l.89-2.802zm34.943-1.88v1.417h-1.129v1.29h1.129v3.9c0 .977.19 1.672.573 2.086.382.414.913.622 1.59.622.553 0 .999-.064 1.337-.19l-.047-1.306c-.202.053-.456.08-.763.08-.67 0-1.003-.477-1.003-1.434V4.562h1.894V3.271H40.89V1.344l-1.687.51zM58.682 4.34c-.637.774-.955 1.746-.955 2.913 0 1.19.343 2.137 1.026 2.842.685.706 1.626 1.059 2.826 1.059.996 0 1.86-.159 2.592-.478l-.27-1.194c-.625.245-1.322.366-2.085.366-.69 0-1.252-.18-1.686-.54-.479-.404-.728-.989-.747-1.753h5.154c.043-.212.063-.471.063-.78 0-.965-.229-1.778-.682-2.435-.573-.827-1.417-1.241-2.531-1.241-1.135 0-2.037.414-2.705 1.241zm1.209.651c.349-.467.806-.7 1.367-.7.616 0 1.072.239 1.37.716.233.372.345.813.333 1.322h-3.578c.051-.52.222-.966.508-1.338zm-4.647-1.463a2.645 2.645 0 0 0-.86 1.226h-.047l-.063-1.481h-1.497c.043.732.065 1.544.065 2.436l-.016 5.301h1.717V6.95c0-.615.144-1.125.43-1.528.33-.457.796-.685 1.4-.685.191 0 .372.016.542.047v-1.64a2.785 2.785 0 0 0-.43-.03c-.445 0-.858.137-1.24.414zm-33.893.97h-.032l-.096-1.226h-1.51c.041.871.063 1.72.063 2.548v8.343h1.718v-4.076h.032c.445.733 1.177 1.099 2.196 1.099.943 0 1.734-.34 2.37-1.02.712-.763 1.067-1.804 1.067-3.12 0-1.178-.306-2.128-.914-2.85-.61-.722-1.373-1.083-2.284-1.083-1.168 0-2.037.462-2.61 1.386zm.66 4.753c-.345-.388-.517-.863-.517-1.426v-1.29c0-.137.027-.311.08-.524.105-.457.33-.825.675-1.107.345-.28.73-.422 1.155-.422.626 0 1.123.255 1.494.764.34.489.51 1.11.51 1.863 0 .818-.18 1.476-.54 1.975-.362.498-.865.748-1.512.748-.553 0-1.001-.194-1.346-.581zm-9.556-4.752h-.031l-.097-1.227h-1.51c.041.871.063 1.72.063 2.548v8.343h1.718v-4.076h.033c.445.733 1.177 1.099 2.195 1.099.944 0 1.735-.34 2.371-1.02.712-.763 1.067-1.804 1.067-3.12 0-1.178-.305-2.128-.915-2.85-.61-.722-1.372-1.083-2.284-1.083-1.167 0-2.036.462-2.61 1.386zm.661 4.752c-.345-.388-.517-.863-.517-1.426v-1.29c0-.137.027-.311.08-.524.105-.457.33-.825.676-1.107.344-.28.73-.422 1.153-.422.625 0 1.125.255 1.496.764.34.489.51 1.11.51 1.863 0 .818-.181 1.476-.542 1.975-.36.498-.864.748-1.511.748-.551 0-1-.194-1.345-.581zm31.681-4.99c-.695.764-1.041 1.746-1.041 2.945 0 1.146.336 2.097 1.01 2.85.674.753 1.577 1.13 2.712 1.13 1.177 0 2.122-.393 2.834-1.179.678-.763 1.018-1.74 1.018-2.93 0-1.156-.329-2.1-.988-2.832-.69-.754-1.602-1.13-2.737-1.13-1.177 0-2.114.382-2.808 1.146zM45.968 9c-.308-.51-.46-1.122-.46-1.836 0-.735.152-1.357.46-1.868.36-.617.885-.926 1.576-.926.667 0 1.182.308 1.542.926.31.51.462 1.123.462 1.836 0 .713-.16 1.332-.477 1.852-.371.627-.886.942-1.542.942-.67 0-1.189-.308-1.56-.926z"/>
        <path id="b" d="M9.8 1.676c-.654.766-1.24 2.02-1.088 3.201 1.155.086 2.34-.583 3.082-1.457.71-.89 1.197-2.098 1.062-3.324-1.029.046-2.315.711-3.055 1.58zm-.925 4.396c-.831 0-2.085-.94-3.437-.913-1.74.027-3.367 1.034-4.26 2.597-1.841 3.19-.467 7.875 1.297 10.453.883 1.262 1.914 2.671 3.265 2.622 1.32-.055 1.814-.842 3.408-.842 1.579 0 2.042.842 3.419.81 1.418-.023 2.31-1.268 3.162-2.542 1.02-1.446 1.43-2.87 1.446-2.944-.034-.012-2.753-1.05-2.78-4.19-.023-2.62 2.145-3.894 2.244-3.953-1.228-1.79-3.131-2.036-3.8-2.055a3.129 3.129 0 0 0-.333-.017c-1.478 0-2.874.974-3.631.974z"/>
    </defs>
    <g fill="none" fill-rule="evenodd">
        <use fill="#333" transform="translate(25.192 7.005)" xlink:href="#a"/>
        <g transform="translate(2 1.013)">
            <mask id="c" fill="#fff">
                <use xlink:href="#b"/>
            </mask>
            <path fill="#333" d="M-1.616 22.752h20.71V-1.824h-20.71z" mask="url(#c)"/>
        </g>
    </g>
</svg>
