<svg xmlns="http://www.w3.org/2000/svg" width="102" height="25" viewBox="0 0 102 25">
    <g fill="#333" fill-rule="evenodd">
        <path d="M87.558 10.185a3.549 3.549 0 0 1-1.096-2.564c0-2 1.678-3.626 3.74-3.626.998 0 1.937.377 2.643 1.061a3.55 3.55 0 0 1 1.095 2.565c0 2-1.677 3.626-3.74 3.626a3.771 3.771 0 0 1-2.642-1.062zm4.437 8.449v-3.595c3.47-.79 6.063-3.815 6.063-7.418 0-2.036-.816-3.95-2.3-5.389A7.932 7.932 0 0 0 90.2 0c-4.332 0-7.857 3.42-7.857 7.621 0 2.035.818 3.95 2.302 5.39a7.869 7.869 0 0 0 3.76 2.024v3.599h-9.793v2.44c0 .547.33 1.113.883 1.113h21.41c.553 0 .883-.566.883-1.114v-2.44h-9.794zM50.326 21.074c0 .547.33 1.113.883 1.113h21.41c.552 0 .883-.566.883-1.113v-2.44H50.326v2.44zM46.688.098H44.25l-.003 24.5h.826c.33-.002.484-.05.687-.217.044-.04 1.264-1.22 1.73-1.671.273-.264.347-.427.347-.758V.954c0-.535-.584-.856-1.15-.856M7.576 3.632c.883 0 1.713.333 2.338.938a3.14 3.14 0 0 1 .968 2.269c0 1.768-1.483 3.207-3.307 3.207a3.335 3.335 0 0 1-2.338-.939 3.138 3.138 0 0 1-.969-2.268c0-1.769 1.484-3.207 3.308-3.207m-.002 9.947h.001c3.832 0 6.95-3.024 6.95-6.74 0-1.801-.723-3.494-2.036-4.767A7.014 7.014 0 0 0 7.575.098C3.743.098.626 3.123.626 6.839c0 1.8.723 3.493 2.035 4.766a7.01 7.01 0 0 0 4.913 1.974M20.464.098h-2.437l-.003 24.5h.826c.33-.002.483-.05.687-.217.044-.04 1.263-1.22 1.73-1.671.272-.264.346-.427.346-.758V.954c0-.535-.584-.856-1.149-.856M0 17.516c0 .548.33 1.115.883 1.115h4.816v5.966h.825c.33 0 .483-.05.687-.216.044-.04 1.264-1.22 1.73-1.671.272-.264.346-.427.346-.758v-3.321h6.057c.553 0 .883-.567.883-1.115v-2.44H0v2.44zM59.22 11.662h5.435V3.58h-5.436v8.082zm-7.011 3.487h19.41c.553 0 .882-.566.882-1.114v-2.373h-7.024c.328 0 .482-.049.684-.215a780.63 780.63 0 0 0 1.721-1.662c.271-.263.344-.425.344-.754V3.58h3.392c.554 0 .883-.567.883-1.114V.098H51.326v2.368c0 .547.33 1.114.883 1.114h6.188c-.328.001-.482.049-.685.215-.043.04-1.257 1.213-1.72 1.662-.27.263-.345.425-.345.754V11.662h-4.32v2.373c0 .548.33 1.114.882 1.114zM28.692 15.15V3.58h3.892l.002 11.57h-3.894zM41.304.097h-2.438v7.527h-2.691V4.632c0-.568-.128-.848-.594-1.3-.798-.773-2.89-2.795-2.964-2.863-.35-.285-.613-.369-1.178-.37h-6.336v13.999c0 .568.127.847.593 1.299.799.773 2.89 2.795 2.964 2.863.35.286.614.37 1.178.37h6.337v-7.526h2.69l-.001 13.493h.826c.33 0 .483-.05.687-.216.044-.04 1.263-1.22 1.73-1.671.272-.264.346-.426.346-.758V.954c0-.535-.584-.856-1.149-.856z"/>
    </g>
</svg>
