<svg xmlns="http://www.w3.org/2000/svg" xmlns:xlink="http://www.w3.org/1999/xlink" width="191" height="30" viewBox="0 0 191 30">
    <defs>
        <path id="a" d="M21.266 29.132h-1.001V.585h4.207v28.548h-3.206zm29.875 0H50.14V.585h4.206v28.548h-3.205zm47.038-16.475a4.09 4.09 0 0 0 2.931 1.23c2.288 0 4.148-1.885 4.148-4.2a4.203 4.203 0 0 0-1.214-2.972 4.095 4.095 0 0 0-2.933-1.23c-2.286 0-4.148 1.884-4.148 4.202 0 1.121.432 2.176 1.216 2.97zm4.922 9.788h10.863v2.827c0 .634-.366 1.29-.98 1.29H89.238c-.613 0-.98-.656-.98-1.29v-2.827H99.12v-4.17a8.62 8.62 0 0 1-4.171-2.345 8.833 8.833 0 0 1-2.553-6.243c0-4.869 3.91-8.83 8.714-8.83 2.329 0 4.517.919 6.163 2.586a8.828 8.828 0 0 1 2.553 6.244c0 4.173-2.876 7.678-6.725 8.593v4.165zm-46.547 2.774v-2.941H82.26v2.941c0 .66-.367 1.343-.98 1.343H57.532c-.612 0-.978-.683-.978-1.343zM8.569 4.9a3.674 3.674 0 0 0-3.67 3.67c0 .98.381 1.901 1.075 2.594a3.643 3.643 0 0 0 2.594 1.075 3.674 3.674 0 0 0 3.67-3.67c0-.98-.381-1.901-1.074-2.595A3.647 3.647 0 0 0 8.569 4.9zm-.001 11.38a7.659 7.659 0 0 1-5.453-2.258A7.66 7.66 0 0 1 .857 8.57c0-4.252 3.46-7.712 7.711-7.712 2.06 0 3.997.802 5.454 2.259a7.658 7.658 0 0 1 2.259 5.453c0 4.251-3.46 7.71-7.713 7.71zM0 20.896v-2.839h18.594v2.839c0 .637-.378 1.296-1.012 1.296h-6.94v3.864c0 .386-.085.575-.397.882-.534.525-1.932 1.897-1.983 1.944-.233.194-.409.25-.787.252H6.53l.001-6.942H1.012C.379 22.191 0 21.532 0 20.895zm66.354-6.872h6.158V4.821h-6.158v9.202zm-7.944 3.97c-.626 0-1-.644-1-1.268v-2.702h4.896V7.817c0-.375.084-.56.39-.858.526-.512 1.901-1.848 1.95-1.893.23-.189.404-.244.776-.245H58.41c-.626 0-1-.645-1-1.269V.857h23.993v2.695c0 .624-.374 1.27-1 1.27h-3.844v6.205c0 .375-.083.56-.39.859-.525.51-1.9 1.848-1.95 1.892-.229.19-.404.245-.775.245h7.959v2.702c0 .624-.374 1.269-1 1.269H58.41zm-26.056.235h4.424l-.003-13.352h-4.421v13.352zM46.68.857c.641 0 1.305.37 1.305.988V26.08c0 .383-.084.57-.394.874-.53.522-1.915 1.883-1.965 1.929-.23.192-.406.248-.78.25h-.938l.002-15.574h-3.056v8.687h-7.198c-.641-.002-.942-.098-1.338-.427-.085-.08-2.46-2.413-3.367-3.305-.53-.522-.674-.844-.674-1.5V.857h7.197c.642.002.942.099 1.338.428.085.078 2.46 2.412 3.367 3.304.53.522.675.845.675 1.5v3.455h3.056l.001-8.687h2.769z"/>
    </defs>
    <g fill="none" fill-rule="evenodd">
        <use fill="#FE574B" xlink:href="#a"/>
        <path fill="#FE574B" fill-rule="nonzero" d="M118.99 23.847c-.337 0-.587-.121-.748-.364a1.486 1.486 0 0 1-.242-.842c0-.319.08-.6.242-.842.161-.243.41-.365.748-.365h1.166v-8.33h-1.034c-.337 0-.587-.12-.748-.363a1.486 1.486 0 0 1-.242-.842c0-.319.08-.6.242-.842.161-.243.41-.365.748-.365h9.592c.337 0 .587.122.748.365.161.242.242.523.242.842 0 .318-.08.599-.242.842-.161.242-.41.364-.748.364h-.88v8.034a12.465 12.465 0 0 0 1.056-.137c.337-.045.605.034.803.239.198.205.312.467.341.785.03.334-.015.634-.132.9-.117.265-.337.42-.66.466-.66.09-1.342.167-2.046.227-.704.061-1.467.107-2.288.137-.821.03-1.716.053-2.684.068-.968.015-2.046.023-3.234.023zm3.85-2.435c.792 0 1.562-.023 2.31-.069v-8.238h-2.31v8.307zm13.112-5.622c.352 0 .609.122.77.364.161.243.242.54.242.888 0 .349-.08.649-.242.899-.161.25-.418.376-.77.376h-2.068v9.422c0 .424-.143.735-.429.933a1.683 1.683 0 0 1-.979.296c-.367 0-.693-.099-.979-.296-.286-.198-.429-.509-.429-.933V10.306c0-.425.143-.736.429-.934.286-.197.612-.295.979-.295s.693.098.979.295c.286.198.429.509.429.934v5.484h2.068zm5.172-.91h9.834c.337 0 .587.121.748.364.161.243.242.516.242.82 0 .303-.08.576-.242.819-.161.243-.41.364-.748.364h-9.834v1.57c0 .35.169.524.506.524h9.878c.337 0 .587.121.748.364.161.243.242.53.242.865 0 .333-.08.622-.242.864-.161.243-.41.365-.748.365h-11.264c-.704 0-1.192-.137-1.463-.41-.271-.273-.407-.766-.407-1.48V12.24c0-.713.136-1.206.407-1.48.271-.272.759-.409 1.463-.409h10.934c.337 0 .587.121.748.364.161.243.242.531.242.865 0 .334-.08.622-.242.865-.161.243-.41.364-.748.364h-9.548c-.337 0-.506.174-.506.523v1.548zm-4.136 12.221c-.337 0-.587-.121-.748-.364a1.526 1.526 0 0 1-.242-.865c0-.349.08-.644.242-.887.161-.243.41-.364.748-.364h16.632c.337 0 .587.121.748.364.161.243.242.538.242.887 0 .334-.08.622-.242.865-.161.243-.41.364-.748.364h-16.632zm19.956-3.3c-.704 0-1.192-.136-1.463-.41-.271-.272-.407-.765-.407-1.479V11.648c0-.425.143-.736.429-.933.286-.197.612-.296.979-.296.381 0 .715.099 1.001.296.286.197.429.508.429.933v9.15c0 .348.169.523.506.523a55.95 55.95 0 0 0 3.399-.103 41.327 41.327 0 0 0 3.289-.33c.337-.045.605.038.803.25.198.213.312.486.341.82.03.349-.015.656-.132.922-.117.265-.337.42-.66.466-.455.06-.957.118-1.507.17a59.486 59.486 0 0 1-4.169.25c-.85.024-1.797.035-2.838.035zm6.754-6.418c-.337 0-.587-.12-.748-.364a1.526 1.526 0 0 1-.242-.865c0-.348.08-.644.242-.887.161-.243.41-.364.748-.364h4.51v-4.597c0-.425.143-.736.429-.934.286-.197.612-.295.979-.295.352 0 .671.098.957.295.286.198.429.509.429.934v17.433c0 .424-.143.735-.429.933a1.647 1.647 0 0 1-.957.296c-.367 0-.693-.099-.979-.296-.286-.198-.429-.509-.429-.933V17.383h-4.51zm11.508-4.437c-.337 0-.587-.122-.748-.365a1.526 1.526 0 0 1-.242-.864c0-.334.08-.623.242-.865.161-.243.41-.364.748-.364h12.276c.337 0 .587.121.748.364.161.242.242.53.242.865 0 .333-.08.622-.242.864-.161.243-.41.365-.748.365h-4.708v.386c0 .44.037.827.11 1.161.073.334.194.641.363.922.169.28.381.538.638.774.257.235.576.466.957.694a66.71 66.71 0 0 0 3.674 2.116c.323.167.491.429.506.785.015.357-.051.664-.198.922a1.44 1.44 0 0 1-.704.66.998.998 0 0 1-.924-.045 98.577 98.577 0 0 1-1.936-1.07c-.293-.167-.59-.341-.891-.523l-.935-.57c-.66-.409-1.155-.785-1.485-1.126-.33-.341-.524-.641-.583-.899h-.022c-.073.304-.275.626-.605.967-.33.342-.825.717-1.485 1.127-.645.394-1.254.759-1.826 1.092-.572.334-1.217.69-1.936 1.07a.975.975 0 0 1-.924.034 1.498 1.498 0 0 1-.704-.671 1.697 1.697 0 0 1-.209-.956c.022-.35.18-.607.473-.774.323-.182.634-.353.935-.512.3-.16.601-.326.902-.5.3-.175.605-.353.913-.536.308-.182.63-.379.968-.591a6.86 6.86 0 0 0 .946-.694c.264-.236.48-.493.649-.774.169-.28.29-.588.363-.922.073-.334.11-.72.11-1.16v-.387h-4.708zM173.028 27.1c-.337 0-.587-.121-.748-.364a1.526 1.526 0 0 1-.242-.865c0-.349.08-.644.242-.887.161-.243.41-.364.748-.364h16.632c.337 0 .587.121.748.364.161.243.242.538.242.887 0 .334-.08.622-.242.865-.161.243-.41.364-.748.364h-16.632z"/>
    </g>
</svg>
